<svg xmlns="http://www.w3.org/2000/svg" width="44" height="44" viewBox="0 0 44 44" fill="none">
<g clip-path="url(#clip0_41_146)">
<path d="M33.6875 44H10.3125C4.62619 44 0 39.3738 0 33.6875V10.3125C0 4.62619 4.62619 0 10.3125 0H33.6875C39.3738 0 44 4.62619 44 10.3125V33.6875C44 39.3738 39.3738 44 33.6875 44ZM10.3125 3.4375C6.52163 3.4375 3.4375 6.52163 3.4375 10.3125V33.6875C3.4375 37.4784 6.52163 40.5625 10.3125 40.5625H33.6875C37.4784 40.5625 40.5625 37.4784 40.5625 33.6875V10.3125C40.5625 6.52163 37.4784 3.4375 33.6875 3.4375H10.3125ZM34.1172 7.73438C32.9306 7.73438 31.9688 8.69627 31.9688 9.88281C31.9688 11.0694 32.9306 12.0312 34.1172 12.0312C35.3037 12.0312 36.2656 11.0694 36.2656 9.88281C36.2656 8.69627 35.3037 7.73438 34.1172 7.73438ZM22 33.1719C15.8397 33.1719 10.8281 28.1603 10.8281 22C11.4417 7.17896 32.5605 7.18326 33.1719 22.0001C33.1719 28.1603 28.1603 33.1719 22 33.1719ZM22 14.2656C17.7353 14.2656 14.2656 17.7353 14.2656 22C14.6905 32.2607 29.311 32.2577 29.7344 21.9999C29.7344 17.7353 26.2647 14.2656 22 14.2656Z" fill="#808080"/>
</g>
<defs>
<clipPath id="clip0_41_146">
<rect width="44" height="44" fill="white"/>
</clipPath>
</defs>
</svg>