<svg width="110" height="92" viewBox="0 0 110 92" fill="none" xmlns="http://www.w3.org/2000/svg">
<g clip-path="url(#clip0_39_44)">
<path d="M50.8419 34.1882H4.29156V0H50.8419V34.1882ZM6.13961 32.3632H48.9938V1.82499H6.13961V32.3632Z" fill="white"/>
<path d="M95.2361 34.1882H48.8501V0H95.2361V34.1882ZM50.6981 32.3632H93.3881V1.82499H50.6981V32.3632Z" fill="white"/>
<path d="M31.8891 17.2766C32.4641 17.4389 32.9774 17.6822 33.4497 18.0066C33.922 18.3311 34.3326 18.6961 34.6612 19.1422C35.0103 19.5883 35.2772 20.075 35.462 20.6022C35.6673 21.1294 35.77 21.6972 35.77 22.3055C35.77 23.0355 35.6263 23.725 35.3388 24.3536C35.0513 24.9822 34.6817 25.5499 34.1889 26.0163C33.6961 26.4827 33.1417 26.868 32.4846 27.1316C31.8275 27.3952 31.1294 27.5372 30.3901 27.5372H22.7926H22.6694C21.9507 27.5169 21.2731 27.3749 20.6365 27.1113C20 26.8477 19.4456 26.4624 18.9733 25.9961C18.501 25.5297 18.1314 24.9822 17.8439 24.3738C17.5565 23.7655 17.4127 23.0963 17.4127 22.3866H19.4866C19.4866 22.8125 19.5688 23.218 19.7536 23.6033C19.9384 23.9886 20.1643 24.313 20.4723 24.6172C20.7597 24.9011 21.1088 25.1444 21.499 25.3066C21.8891 25.4688 22.3203 25.5499 22.7721 25.5499H30.2464V25.5297C30.2875 25.5297 30.308 25.5297 30.308 25.5499C30.308 25.5499 30.3491 25.5702 30.3696 25.5702C30.8213 25.5702 31.2526 25.4891 31.6632 25.3269C32.0739 25.1647 32.423 24.9213 32.7105 24.6172C32.9979 24.313 33.2443 23.9683 33.4291 23.583C33.614 23.1977 33.6961 22.7719 33.6961 22.3258C33.6961 22.2852 33.6961 22.265 33.6756 22.2447V22.1838V22.1027V22.0825V22.0622V22.0013V21.9811V21.9608V21.9C33.655 21.8797 33.655 21.8594 33.655 21.8391C33.655 21.758 33.655 21.7175 33.6345 21.6972V21.6363V21.6161C33.6345 21.5958 33.6345 21.5958 33.614 21.5958C33.614 21.5958 33.5934 21.5958 33.5934 21.5755V21.4944L33.5729 21.4741V21.4133C33.5729 21.393 33.5729 21.3727 33.5523 21.3525C33.5523 21.3119 33.5523 21.2916 33.5318 21.2916C33.5318 21.2916 33.5113 21.2511 33.5113 21.2308C33.4907 21.2308 33.4907 21.2308 33.4907 21.2105C33.4907 21.1902 33.4907 21.17 33.4702 21.17C33.4702 21.17 33.4497 21.1294 33.4497 21.1091C33.4291 21.1091 33.4291 21.1091 33.4291 21.0889V21.0686C33.4086 21.0483 33.4086 21.028 33.4086 21.0077C33.3881 20.9875 33.3881 20.9672 33.3881 20.9469C33.3675 20.9266 33.3675 20.9064 33.3675 20.8861C33.347 20.8455 33.3265 20.8252 33.3059 20.7847C33.2854 20.7644 33.2649 20.7239 33.2443 20.6833L33.2238 20.663V20.6427L33.1622 20.5819L33.1417 20.5211L33.1211 20.4602L33.039 20.3791L32.9774 20.3183C32.9774 20.298 32.9774 20.2777 32.9569 20.2575L32.8953 20.1966L32.8337 20.1358L32.8131 20.075C32.7926 20.075 32.7926 20.075 32.7926 20.0547C32.7926 20.0547 32.7926 20.0344 32.7721 20.0344C32.7515 20.0141 32.731 19.9939 32.731 19.9736C32.731 19.9533 32.6899 19.933 32.6694 19.9127L32.6489 19.8925L32.5873 19.8316C32.5667 19.8316 32.5667 19.8316 32.5667 19.8114C32.5667 19.8114 32.5667 19.7911 32.5462 19.7911L32.4846 19.7302L32.423 19.71C32.3819 19.6694 32.3409 19.6491 32.2998 19.6289L32.2382 19.6086C32.2382 19.5883 32.2176 19.5883 32.1766 19.5883V19.568L32.115 19.5477C32.0944 19.5477 32.0944 19.5477 32.0944 19.5275C32.0944 19.5275 32.0944 19.5072 32.0739 19.5072C32.0328 19.4666 31.9918 19.4464 31.9507 19.4464C31.8686 19.4058 31.8275 19.3855 31.807 19.3855C31.7864 19.3652 31.7659 19.3652 31.7454 19.3652C31.7248 19.345 31.7043 19.345 31.6838 19.345C31.6632 19.3247 31.6427 19.3247 31.6222 19.3247H31.6016C31.5811 19.3044 31.5606 19.3044 31.54 19.3044C31.499 19.2841 31.4784 19.2841 31.4784 19.2841C31.4784 19.2841 31.4374 19.2841 31.4168 19.2639C31.3963 19.2639 31.3758 19.2639 31.3552 19.2436C31.3347 19.2436 31.3142 19.2233 31.2936 19.2233H31.2115V19.203H31.1499C30.8008 19.1016 30.2464 18.98 29.4866 18.8177C28.7269 18.6555 27.885 18.4933 26.9815 18.3311C26.8378 18.2905 26.6735 18.2702 26.5298 18.25C26.386 18.2297 26.2218 18.2094 26.078 18.1689C25.8111 18.1283 25.5441 18.0877 25.2772 18.0269C25.0103 17.9661 24.7433 17.9255 24.4764 17.885C24.4558 17.885 24.4353 17.885 24.4353 17.8647C24.4353 17.8647 24.4148 17.8444 24.3942 17.8444C24.3121 17.8444 24.23 17.8241 24.1068 17.7836H24.0246H23.963C23.9425 17.7633 23.922 17.7633 23.8809 17.7633C23.8398 17.7633 23.8193 17.7633 23.7988 17.743C23.7782 17.743 23.7577 17.7227 23.7166 17.7227C23.6756 17.7227 23.655 17.7227 23.6345 17.7025H23.5113C23.3059 17.6619 23.1211 17.6416 22.9363 17.6011C22.7721 17.5808 22.6078 17.5403 22.4641 17.4997C22.2998 17.4591 22.1355 17.4389 21.9918 17.4186C21.848 17.3983 21.7248 17.378 21.6427 17.3577C21.5195 17.3375 21.4374 17.3172 21.3552 17.2969C20.7803 17.155 20.2669 16.9116 19.7946 16.5872C19.3224 16.2628 18.9117 15.8978 18.5832 15.4516C18.2341 15.0055 17.9671 14.5189 17.7823 13.9714C17.577 13.4239 17.4743 12.8561 17.4743 12.268C17.4743 11.5583 17.6181 10.8892 17.885 10.2403C18.1519 9.61166 18.5421 9.04389 19.0144 8.5775C19.4866 8.11111 20.0411 7.74611 20.6776 7.46222C21.3142 7.17834 21.9918 7.03639 22.731 7.01611H22.8542H30.4517H30.7597C31.4374 7.05667 32.0739 7.19861 32.6694 7.4825C33.2649 7.74611 33.7782 8.11111 34.2094 8.53694C34.6612 8.96277 35.0103 9.46972 35.2977 10.0375C35.5852 10.6053 35.7495 11.2136 35.8111 11.8422H33.7372C33.6756 11.4772 33.5524 11.1122 33.3881 10.7675C33.2033 10.4228 32.9774 10.1389 32.7105 9.87527C32.4435 9.63194 32.115 9.42916 31.7659 9.26694C31.4168 9.125 31.0472 9.02361 30.6365 9.02361H30.5544H30.4312H30.2875H22.9569H22.8131H22.6899C22.2587 9.04389 21.848 9.14527 21.4579 9.3075C21.0677 9.46972 20.7392 9.71305 20.4517 10.0172C20.1643 10.3214 19.9384 10.6661 19.7741 11.0311C19.6098 11.4164 19.5277 11.8219 19.5277 12.2478V12.3289V12.41V12.4708V12.5317V12.5722V12.633V12.6533L19.5482 12.6736V12.7344V12.775V12.8358C19.5688 12.8561 19.5688 12.8764 19.5688 12.8967V12.9575V12.9778L19.5893 12.998V13.0589V13.0792L19.6098 13.0994V13.1603C19.6304 13.1805 19.6304 13.2008 19.6304 13.2211C19.6304 13.2414 19.6304 13.2617 19.6509 13.2617C19.6509 13.2617 19.6714 13.2819 19.6714 13.3022C19.692 13.3428 19.7125 13.363 19.7125 13.4036C19.7125 13.4239 19.733 13.4644 19.7536 13.505C19.7536 13.5455 19.7536 13.5658 19.7741 13.5861C19.7741 13.6064 19.7741 13.6267 19.7946 13.6469C19.7946 13.6672 19.7946 13.6875 19.8152 13.6875C19.8152 13.6875 19.8357 13.7078 19.8357 13.728L19.8563 13.7889C19.8768 13.7889 19.8768 13.8092 19.8768 13.8497H19.8973C19.8973 13.8903 19.8973 13.9105 19.9179 13.9105V13.9308L19.9384 13.9511L19.9589 13.9714V13.9916C19.9795 14.0119 19.9795 14.0322 19.9795 14.0525H20C20 14.093 20 14.1133 20.0205 14.1133L20.0821 14.1741V14.1944L20.1027 14.2553L20.1643 14.3161L20.2875 14.4378L20.4107 14.5797C20.4312 14.5797 20.4312 14.5797 20.4312 14.6C20.4312 14.6 20.4312 14.6203 20.4517 14.6203L20.5133 14.6811L20.5749 14.7419L20.6365 14.7622C20.6365 14.7825 20.6365 14.7825 20.6571 14.7825V14.8028C20.6776 14.8028 20.6981 14.8028 20.7187 14.823L20.7392 14.8433H20.7597C20.7597 14.8636 20.7597 14.8636 20.7803 14.8636L20.8008 14.8839L20.8213 14.9041C20.8419 14.9041 20.8624 14.9041 20.8829 14.9244C20.9035 14.9244 20.9035 14.9244 20.9035 14.9447C20.9035 14.9447 20.9035 14.965 20.924 14.965L21.2731 15.1678C21.3142 15.1678 21.3552 15.188 21.3963 15.2286C21.4374 15.2286 21.4579 15.2286 21.4784 15.2489H21.54L21.5606 15.2691H21.6222C21.6427 15.2894 21.6632 15.2894 21.6838 15.2894H21.7043C21.7043 15.3097 21.7248 15.3097 21.7659 15.3097C21.7864 15.3097 21.807 15.3097 21.8275 15.33H21.848H21.9096L21.9302 15.3503H21.9918C22.0328 15.3503 22.0534 15.3503 22.0739 15.3705H22.1355C22.1766 15.3705 22.1971 15.3705 22.2176 15.3908H22.2998H22.3614H22.3819C22.4025 15.3908 22.5257 15.4111 22.7515 15.4516C22.9774 15.4922 23.2649 15.5328 23.614 15.5936C23.963 15.6544 24.3737 15.7153 24.846 15.7964C25.3183 15.8775 25.8111 15.9586 26.3244 16.0397C26.5092 16.0803 26.653 16.1005 26.7146 16.1208C27.6181 16.2628 28.5215 16.4453 29.4456 16.6278C30.4723 16.8914 31.2526 17.0739 31.8891 17.2766Z" fill="white"/>
<path d="M31.8891 17.2766C32.4641 17.4389 32.9774 17.6822 33.4497 18.0066C33.922 18.3311 34.3326 18.6961 34.6612 19.1422C35.0103 19.5883 35.2772 20.075 35.462 20.6022C35.6673 21.1294 35.77 21.6972 35.77 22.3055C35.77 23.0355 35.6263 23.725 35.3388 24.3536C35.0513 24.9822 34.6817 25.5499 34.1889 26.0163C33.6961 26.4827 33.1417 26.868 32.4846 27.1316C31.8275 27.3952 31.1294 27.5372 30.3901 27.5372H22.7926H22.6694C21.9507 27.5169 21.2731 27.3749 20.6365 27.1113C20 26.8477 19.4456 26.4624 18.9733 25.9961C18.501 25.5297 18.1314 24.9822 17.8439 24.3738C17.5565 23.7655 17.4127 23.0963 17.4127 22.3866H19.4866C19.4866 22.8125 19.5688 23.218 19.7536 23.6033C19.9384 23.9886 20.1643 24.313 20.4723 24.6172C20.7597 24.9011 21.1088 25.1444 21.499 25.3066C21.8891 25.4688 22.3203 25.5499 22.7721 25.5499H30.2464V25.5297C30.2875 25.5297 30.308 25.5297 30.308 25.5499C30.308 25.5499 30.3491 25.5702 30.3696 25.5702C30.8213 25.5702 31.2526 25.4891 31.6632 25.3269C32.0739 25.1647 32.423 24.9213 32.7105 24.6172C32.9979 24.313 33.2443 23.9683 33.4291 23.583C33.614 23.1977 33.6961 22.7719 33.6961 22.3258C33.6961 22.2852 33.6961 22.265 33.6756 22.2447V22.1838V22.1027V22.0825V22.0622V22.0013V21.9811V21.9608V21.9C33.655 21.8797 33.655 21.8594 33.655 21.8391C33.655 21.758 33.655 21.7175 33.6345 21.6972V21.6363V21.6161C33.6345 21.5958 33.6345 21.5958 33.614 21.5958C33.614 21.5958 33.5934 21.5958 33.5934 21.5755V21.4944L33.5729 21.4741V21.4133C33.5729 21.393 33.5729 21.3727 33.5523 21.3525C33.5523 21.3119 33.5523 21.2916 33.5318 21.2916C33.5318 21.2916 33.5113 21.2511 33.5113 21.2308C33.4907 21.2308 33.4907 21.2308 33.4907 21.2105C33.4907 21.1902 33.4907 21.17 33.4702 21.17C33.4702 21.17 33.4497 21.1294 33.4497 21.1091C33.4291 21.1091 33.4291 21.1091 33.4291 21.0889V21.0686C33.4086 21.0483 33.4086 21.028 33.4086 21.0077C33.3881 20.9875 33.3881 20.9672 33.3881 20.9469C33.3675 20.9266 33.3675 20.9064 33.3675 20.8861C33.347 20.8455 33.3265 20.8252 33.3059 20.7847C33.2854 20.7644 33.2649 20.7239 33.2443 20.6833L33.2238 20.663V20.6427L33.1622 20.5819L33.1417 20.5211L33.1211 20.4602L33.039 20.3791L32.9774 20.3183C32.9774 20.298 32.9774 20.2777 32.9569 20.2575L32.8953 20.1966L32.8337 20.1358L32.8131 20.075C32.7926 20.075 32.7926 20.075 32.7926 20.0547C32.7926 20.0547 32.7926 20.0344 32.7721 20.0344C32.7515 20.0141 32.731 19.9939 32.731 19.9736C32.731 19.9533 32.6899 19.933 32.6694 19.9127L32.6489 19.8925L32.5873 19.8316C32.5667 19.8316 32.5667 19.8316 32.5667 19.8114C32.5667 19.8114 32.5667 19.7911 32.5462 19.7911L32.4846 19.7302L32.423 19.71C32.3819 19.6694 32.3409 19.6491 32.2998 19.6289L32.2382 19.6086C32.2382 19.5883 32.2176 19.5883 32.1766 19.5883V19.568L32.115 19.5477C32.0944 19.5477 32.0944 19.5477 32.0944 19.5275C32.0944 19.5275 32.0944 19.5072 32.0739 19.5072C32.0328 19.4666 31.9918 19.4464 31.9507 19.4464C31.8686 19.4058 31.8275 19.3855 31.807 19.3855C31.7864 19.3652 31.7659 19.3652 31.7454 19.3652C31.7248 19.345 31.7043 19.345 31.6838 19.345C31.6632 19.3247 31.6427 19.3247 31.6222 19.3247H31.6016C31.5811 19.3044 31.5606 19.3044 31.54 19.3044C31.499 19.2841 31.4784 19.2841 31.4784 19.2841C31.4784 19.2841 31.4374 19.2841 31.4168 19.2639C31.3963 19.2639 31.3758 19.2639 31.3552 19.2436C31.3347 19.2436 31.3142 19.2233 31.2936 19.2233H31.2115V19.203H31.1499C30.8008 19.1016 30.2464 18.98 29.4866 18.8177C28.7269 18.6555 27.885 18.4933 26.9815 18.3311C26.8378 18.2905 26.6735 18.2702 26.5298 18.25C26.386 18.2297 26.2218 18.2094 26.078 18.1689C25.8111 18.1283 25.5441 18.0877 25.2772 18.0269C25.0103 17.9661 24.7433 17.9255 24.4764 17.885C24.4558 17.885 24.4353 17.885 24.4353 17.8647C24.4353 17.8647 24.4148 17.8444 24.3942 17.8444C24.3121 17.8444 24.23 17.8241 24.1068 17.7836H24.0246H23.963C23.9425 17.7633 23.922 17.7633 23.8809 17.7633C23.8398 17.7633 23.8193 17.7633 23.7988 17.743C23.7782 17.743 23.7577 17.7227 23.7166 17.7227C23.6756 17.7227 23.655 17.7227 23.6345 17.7025H23.5113C23.3059 17.6619 23.1211 17.6416 22.9363 17.6011C22.7721 17.5808 22.6078 17.5403 22.4641 17.4997C22.2998 17.4591 22.1355 17.4389 21.9918 17.4186C21.848 17.3983 21.7248 17.378 21.6427 17.3578C21.5195 17.3375 21.4374 17.3172 21.3552 17.2969C20.7803 17.155 20.2669 16.9116 19.7946 16.5872C19.3224 16.2628 18.9117 15.8978 18.5832 15.4516C18.2341 15.0055 17.9671 14.5189 17.7823 13.9714C17.577 13.4239 17.4743 12.8561 17.4743 12.268C17.4743 11.5583 17.6181 10.8892 17.885 10.2403C18.1519 9.61166 18.5421 9.04389 19.0144 8.5775C19.4866 8.11111 20.0411 7.74611 20.6776 7.46222C21.3142 7.17834 21.9918 7.03639 22.731 7.01611H22.8542H30.4517H30.7597C31.4374 7.05667 32.0739 7.19861 32.6694 7.4825C33.2649 7.74611 33.7782 8.11111 34.2094 8.53694C34.6612 8.96277 35.0103 9.46972 35.2977 10.0375C35.5852 10.6053 35.7495 11.2136 35.8111 11.8422H33.7372C33.6756 11.4772 33.5524 11.1122 33.3881 10.7675C33.2033 10.4228 32.9774 10.1389 32.7105 9.87527C32.4435 9.63194 32.115 9.42916 31.7659 9.26694C31.4168 9.125 31.0472 9.02361 30.6365 9.02361H30.5544H30.4312H30.2875H22.9569H22.8131H22.6899C22.2587 9.04389 21.848 9.14527 21.4579 9.3075C21.0677 9.46972 20.7392 9.71305 20.4517 10.0172C20.1643 10.3214 19.9384 10.6661 19.7741 11.0311C19.6098 11.4164 19.5277 11.8219 19.5277 12.2478V12.3289V12.41V12.4708V12.5317V12.5722V12.633V12.6533L19.5482 12.6736V12.7344V12.775V12.8358C19.5688 12.8561 19.5688 12.8764 19.5688 12.8967V12.9575V12.9778L19.5893 12.998V13.0589V13.0792L19.6098 13.0994V13.1603C19.6304 13.1805 19.6304 13.2008 19.6304 13.2211C19.6304 13.2414 19.6304 13.2617 19.6509 13.2617C19.6509 13.2617 19.6714 13.2819 19.6714 13.3022C19.692 13.3428 19.7125 13.363 19.7125 13.4036C19.7125 13.4239 19.733 13.4644 19.7536 13.505C19.7536 13.5455 19.7536 13.5658 19.7741 13.5861C19.7741 13.6064 19.7741 13.6267 19.7946 13.6469C19.7946 13.6672 19.7946 13.6875 19.8152 13.6875C19.8152 13.6875 19.8357 13.7078 19.8357 13.728L19.8563 13.7889C19.8768 13.7889 19.8768 13.8092 19.8768 13.8497H19.8973C19.8973 13.8903 19.8973 13.9105 19.9179 13.9105V13.9308L19.9384 13.9511L19.9589 13.9714V13.9916C19.9795 14.0119 19.9795 14.0322 19.9795 14.0525H20C20 14.093 20 14.1133 20.0205 14.1133L20.0821 14.1741V14.1944L20.1027 14.2553L20.1643 14.3161L20.2875 14.4378L20.4107 14.5797C20.4312 14.5797 20.4312 14.5797 20.4312 14.6C20.4312 14.6 20.4312 14.6203 20.4517 14.6203L20.5133 14.6811L20.5749 14.7419L20.6365 14.7622C20.6365 14.7825 20.6365 14.7825 20.6571 14.7825V14.8028C20.6776 14.8028 20.6981 14.8028 20.7187 14.823L20.7392 14.8433H20.7597C20.7597 14.8636 20.7597 14.8636 20.7803 14.8636L20.8008 14.8839L20.8213 14.9041C20.8419 14.9041 20.8624 14.9041 20.8829 14.9244C20.9035 14.9244 20.9035 14.9244 20.9035 14.9447C20.9035 14.9447 20.9035 14.965 20.924 14.965L21.2731 15.1678C21.3142 15.1678 21.3552 15.188 21.3963 15.2286C21.4374 15.2286 21.4579 15.2286 21.4784 15.2489H21.54L21.5606 15.2691H21.6222C21.6427 15.2894 21.6632 15.2894 21.6838 15.2894H21.7043C21.7043 15.3097 21.7248 15.3097 21.7659 15.3097C21.7864 15.3097 21.807 15.3097 21.8275 15.33H21.848H21.9096L21.9302 15.3503H21.9918C22.0328 15.3503 22.0534 15.3503 22.0739 15.3705H22.1355C22.1766 15.3705 22.1971 15.3705 22.2176 15.3908H22.2998H22.3614H22.3819C22.4025 15.3908 22.5257 15.4111 22.7515 15.4516C22.9774 15.4922 23.2649 15.5328 23.614 15.5936C23.963 15.6544 24.3737 15.7153 24.846 15.7964C25.3183 15.8775 25.8111 15.9586 26.3244 16.0397C26.5092 16.0803 26.653 16.1005 26.7146 16.1208C27.6181 16.2628 28.5215 16.4453 29.4456 16.6278C30.4723 16.8914 31.2526 17.0739 31.8891 17.2766Z" stroke="white" stroke-width="2" stroke-miterlimit="10"/>
<path d="M81.232 27.5983H79.1786V18.0474H65.5236V27.5983H63.4702V6.99609H65.5236V16.0197H79.1786V6.99609H81.232V27.5983Z" fill="white"/>
<path d="M81.232 27.5983H79.1786V18.0474H65.5236V27.5983H63.4702V6.99609H65.5236V16.0197H79.1786V6.99609H81.232V27.5983Z" stroke="white" stroke-width="2" stroke-miterlimit="10"/>
<path d="M12.4435 53.3507C12.8542 53.4723 13.2444 53.6346 13.5729 53.8576C13.922 54.0807 14.2095 54.3443 14.4559 54.6687C14.7023 54.9729 14.9076 55.3176 15.0513 55.7029C15.1951 56.0882 15.2772 56.4734 15.2772 56.8993C15.2772 57.4062 15.1745 57.8929 14.9692 58.339C14.7639 58.7851 14.4764 59.1907 14.1273 59.5151C13.7782 59.8598 13.3676 60.1234 12.8953 60.3059C12.423 60.4884 11.9097 60.5898 11.3758 60.5898H5.83163H5.7495C5.21562 60.5695 4.7228 60.4681 4.27106 60.2856C3.79878 60.1031 3.40864 59.8395 3.05956 59.4948C2.71048 59.1704 2.44354 58.7851 2.23821 58.339C2.03287 57.8929 1.9302 57.4265 1.9302 56.9196H3.4497C3.4497 57.2237 3.51131 57.5076 3.65504 57.7915C3.77825 58.0551 3.96305 58.2984 4.16839 58.5012C4.37373 58.704 4.64067 58.8662 4.92814 58.9879C5.21562 59.1095 5.52363 59.1704 5.85217 59.1704H11.2936V59.1501C11.3142 59.1501 11.3347 59.1501 11.3552 59.1501C11.3552 59.1501 11.3758 59.1501 11.4168 59.1501C11.7454 59.1501 12.0534 59.0893 12.3614 58.9676C12.6489 58.8459 12.9158 58.6837 13.1212 58.4809C13.3265 58.2782 13.5113 58.0145 13.6345 57.7509C13.7577 57.467 13.8398 57.1832 13.8398 56.8587C13.8398 56.8384 13.8398 56.8182 13.8193 56.7979V56.7573V56.7168V56.6965V56.6762V56.6357V56.6154V56.5951V56.5546C13.7988 56.5343 13.7988 56.5343 13.7988 56.514C13.7988 56.4532 13.7988 56.4329 13.7782 56.4126V56.3721V56.3518C13.7782 56.3315 13.7782 56.3315 13.7577 56.3315C13.7577 56.3315 13.7372 56.3315 13.7372 56.3112V56.2707L13.7166 56.2504V56.2098C13.7166 56.1896 13.7166 56.1896 13.6961 56.1693C13.6961 56.149 13.6961 56.1287 13.6756 56.1287C13.6756 56.1287 13.655 56.1084 13.655 56.0882C13.6345 56.0882 13.6345 56.0882 13.6345 56.0679C13.6345 56.0476 13.6345 56.0476 13.614 56.0476C13.614 56.0476 13.5934 56.0273 13.5934 56.0071C13.5729 56.0071 13.5729 56.0071 13.5729 55.9868V55.9665C13.5524 55.9665 13.5524 55.9665 13.5524 55.9462C13.5318 55.9259 13.5318 55.9259 13.5318 55.9057C13.5113 55.8854 13.5113 55.8854 13.5113 55.8651C13.4908 55.8448 13.4908 55.8246 13.4702 55.8043C13.4497 55.784 13.4497 55.7637 13.4292 55.7434L13.4086 55.7232V55.7029L13.3676 55.6623L13.347 55.6218L13.3265 55.5812L13.2649 55.5204L13.2238 55.4798C13.2238 55.4596 13.2238 55.4596 13.2033 55.4393L13.1622 55.3987L13.1212 55.3582L13.1006 55.3176C13.0801 55.3176 13.0801 55.3176 13.0801 55.3176C13.0801 55.3176 13.0801 55.3176 13.0596 55.3176C13.039 55.2973 13.039 55.2973 13.0185 55.2771C13.0185 55.2568 12.998 55.2568 12.9569 55.2365L12.9364 55.2162L12.8953 55.1757C12.8748 55.1757 12.8748 55.1757 12.8748 55.1757C12.8748 55.1757 12.8748 55.1757 12.8542 55.1757L12.8132 55.1351L12.7721 55.1148C12.7516 55.0946 12.7105 55.0743 12.6899 55.054L12.6489 55.0337C12.6489 55.0134 12.6283 55.0134 12.6078 55.0134V54.9526L12.5667 54.9323C12.5462 54.9323 12.5462 54.9323 12.5462 54.9323C12.5462 54.9323 12.5462 54.9323 12.5257 54.9323C12.5051 54.9121 12.4641 54.8918 12.4435 54.8918C12.3819 54.8715 12.3614 54.8512 12.3409 54.8512C12.3203 54.8309 12.3203 54.8309 12.2998 54.8309C12.2793 54.8107 12.2793 54.8107 12.2587 54.8107C12.2382 54.7904 12.2382 54.7904 12.2177 54.7904H12.1971C12.1766 54.7701 12.1766 54.7701 12.1561 54.7701C12.1355 54.7498 12.115 54.7498 12.0945 54.7498C12.0945 54.7498 12.0739 54.7498 12.0329 54.7296C12.0123 54.7296 12.0123 54.7296 11.9918 54.7296C11.9713 54.7296 11.9713 54.7296 11.9507 54.7296H11.9097V54.7093H11.8686C11.6222 54.6484 11.2115 54.5471 10.6571 54.4457C10.1027 54.324 9.48666 54.2226 8.82958 54.1009C8.72691 54.0807 8.60371 54.0604 8.50104 54.0401C8.39837 54.0198 8.27517 53.9996 8.1725 53.9793C7.98769 53.959 7.78235 53.9185 7.59755 53.8779C7.41274 53.8373 7.2074 53.7968 7.0226 53.7765C7.00207 53.7765 7.00207 53.7765 6.98153 53.7765C6.98153 53.7765 6.961 53.7765 6.94046 53.7765C6.87886 53.7765 6.81726 53.7562 6.73512 53.7359H6.67352H6.63246C6.61192 53.7157 6.59139 53.7157 6.57085 53.7157C6.55032 53.7157 6.52979 53.7157 6.50925 53.7157C6.48872 53.7157 6.46818 53.7157 6.44765 53.7157C6.42712 53.7157 6.40658 53.7157 6.38605 53.6954H6.30391C6.16018 53.6751 6.01644 53.6548 5.89324 53.6346C5.77003 53.6143 5.64683 53.594 5.54416 53.5737C5.42096 53.5535 5.29775 53.5332 5.19508 53.5129C5.09241 53.4926 5.01028 53.4926 4.92814 53.4723C4.84601 53.4521 4.78441 53.4521 4.72281 53.4318C4.31213 53.3304 3.92198 53.1682 3.59344 52.9451C3.24437 52.7221 2.95689 52.4585 2.71048 52.134C2.46408 51.8298 2.25874 51.4851 2.115 51.0998C1.97127 50.7146 1.88913 50.309 1.88913 49.8832C1.88913 49.3762 1.9918 48.9099 2.19714 48.4637C2.40248 48.0176 2.66942 47.6324 3.01849 47.2876C3.36757 46.9632 3.75771 46.6996 4.22999 46.4968C4.70227 46.294 5.19508 46.1926 5.72897 46.1724H5.8111H11.3552H11.5811C12.0739 46.1926 12.5462 46.3143 12.9774 46.4968C13.4086 46.6793 13.7782 46.9429 14.1068 47.2471C14.4353 47.5512 14.7023 47.896 14.9076 48.3015C15.1129 48.7071 15.2362 49.1329 15.2772 49.579H13.7577C13.7166 49.3154 13.6345 49.0721 13.4908 48.8287C13.3676 48.5854 13.2033 48.3826 12.998 48.2001C12.7926 48.0176 12.5667 47.8757 12.3203 47.7743C12.0739 47.6729 11.7865 47.6121 11.499 47.5918H11.4374H11.3552H11.2526H5.91377H5.8111H5.72897C5.42096 47.6121 5.11295 47.6729 4.82547 47.7946C4.538 47.9162 4.29159 48.0785 4.08625 48.2812C3.88092 48.484 3.71664 48.7274 3.59344 49.0112C3.47024 49.2951 3.40864 49.579 3.40864 49.8832V49.944V50.0049V50.0454V50.086V50.1062V50.1468V50.1671L3.42917 50.1874V50.2279V50.2482V50.2887C3.4497 50.309 3.4497 50.309 3.4497 50.3293V50.3698V50.3901L3.47024 50.4104V50.451V50.4712L3.49077 50.4915V50.5321C3.51131 50.5523 3.51131 50.5523 3.51131 50.5726C3.51131 50.5929 3.51131 50.5929 3.53184 50.5929L3.55237 50.6132C3.57291 50.6335 3.57291 50.6537 3.59344 50.674C3.59344 50.6943 3.61398 50.7146 3.63451 50.7348C3.63451 50.7551 3.63451 50.7754 3.65504 50.7957C3.65504 50.816 3.65504 50.816 3.67558 50.8362C3.67558 50.8565 3.67558 50.8565 3.69611 50.8565L3.71665 50.8768L3.73718 50.9173C3.75771 50.9173 3.75771 50.9376 3.75771 50.9579H3.77825C3.77825 50.9782 3.77825 50.9985 3.79878 50.9985V51.0187L3.81931 51.039L3.83985 51.0593V51.0796C3.86038 51.0998 3.86038 51.0998 3.86038 51.1201H3.88092C3.88092 51.1404 3.88092 51.1607 3.90145 51.1607L3.94252 51.2012V51.2215L3.96305 51.2621L4.00412 51.3026L4.08625 51.3837L4.16839 51.4851C4.18892 51.4851 4.18892 51.4851 4.18892 51.4851C4.18892 51.4851 4.18892 51.4851 4.20946 51.4851L4.25053 51.5257L4.29159 51.5662L4.33266 51.5865C4.33266 51.6068 4.33266 51.6068 4.3532 51.6068V51.6271C4.37373 51.6271 4.37373 51.6271 4.39426 51.6473L4.4148 51.6676H4.43533C4.43533 51.6879 4.43533 51.6879 4.45586 51.6879L4.4764 51.7082L4.49693 51.7285C4.51747 51.7285 4.51747 51.7285 4.538 51.7487C4.55853 51.7487 4.55853 51.7487 4.55853 51.7487C4.55853 51.7487 4.55853 51.7487 4.57907 51.7487L4.82547 51.8907C4.84601 51.8907 4.88708 51.911 4.90761 51.9312C4.92814 51.9312 4.94868 51.9312 4.96921 51.9515H5.01028L5.03081 51.9718H5.07188C5.09241 51.9921 5.09241 51.9921 5.11295 51.9921H5.13348C5.13348 52.0123 5.15402 52.0123 5.17455 52.0123C5.19508 52.0123 5.19508 52.0123 5.21562 52.0326H5.23615H5.27722L5.29775 52.0529H5.33882C5.35935 52.0529 5.37989 52.0529 5.40042 52.0732H5.44149C5.46202 52.0732 5.48256 52.0732 5.50309 52.0935H5.56469H5.60576H5.6263C5.64683 52.0935 5.72897 52.1137 5.89324 52.134C6.05751 52.1543 6.26285 52.1948 6.52979 52.2354C6.77619 52.276 7.0842 52.3165 7.43328 52.3773C7.78235 52.4382 8.13143 52.499 8.50104 52.5598C8.64478 52.5801 8.72691 52.6004 8.78851 52.6207C9.4456 52.7221 10.1232 52.8437 10.7803 52.9857C11.4374 53.1276 11.9713 53.2087 12.4435 53.3507Z" fill="white"/>
<path d="M31.499 54.0807H25.1335V60.6304H23.5934V46.0913H32.9774C33.5318 46.1319 34.0452 46.2535 34.538 46.4969C35.0308 46.7199 35.462 47.0241 35.8111 47.3891C36.1602 47.7541 36.4477 48.1596 36.6735 48.626C36.8789 49.0924 37.0021 49.5791 37.0021 50.086C37.0021 50.593 36.8994 51.0594 36.7146 51.5257C36.5298 51.9921 36.2423 52.3774 35.9138 52.7424C35.5647 53.0871 35.1746 53.3913 34.7023 53.6346C34.23 53.878 33.7372 54.0199 33.2033 54.101H31.499V54.0807ZM32.9364 52.6816C33.2854 52.641 33.614 52.5396 33.922 52.3977C34.23 52.2355 34.4969 52.053 34.7228 51.8299C34.9487 51.6069 35.1129 51.3432 35.2567 51.0391C35.3799 50.7349 35.462 50.4307 35.462 50.086C35.462 49.7413 35.4004 49.4169 35.2567 49.1127C35.1129 48.8085 34.9281 48.5449 34.6817 48.3016C34.4353 48.0785 34.1479 47.8757 33.8193 47.7541C33.4908 47.6121 33.1417 47.531 32.7721 47.5107H25.154V52.6816H32.9364Z" fill="white"/>
<path d="M63.1622 60.6303H61.499L58.5421 55.1554H50.0616L47.1047 60.6303H45.4415L53.3881 45.8682H53.4086H53.9015H54.2916H54.6817H55.154H55.1746L63.1622 60.6303ZM50.8214 53.6954H57.7618L54.3121 47.2876H54.2916L50.8214 53.6954Z" fill="white"/>
<path d="M73.9836 59.1499H76.2423V60.5896H70.3901V59.1499H72.6489V47.5308H70.3901V46.1113H76.2423V47.5308H73.9836V59.1499Z" fill="white"/>
<path d="M99.4456 60.6708H97.9466L86.037 48.1797V60.6708H84.538V46.0708H86.037L97.9671 58.5619V46.0708H99.4661V60.6708H99.4456Z" fill="white"/>
<path d="M12.4435 53.3507C12.8542 53.4723 13.2444 53.6346 13.5729 53.8576C13.922 54.0807 14.2095 54.3443 14.4559 54.6687C14.7023 54.9729 14.9076 55.3176 15.0513 55.7029C15.1951 56.0882 15.2772 56.4734 15.2772 56.8993C15.2772 57.4062 15.1745 57.8929 14.9692 58.339C14.7639 58.7851 14.4764 59.1907 14.1273 59.5151C13.7782 59.8598 13.3676 60.1234 12.8953 60.3059C12.423 60.4884 11.9097 60.5898 11.3758 60.5898H5.83163H5.7495C5.21562 60.5695 4.7228 60.4681 4.27106 60.2856C3.79878 60.1031 3.40864 59.8395 3.05956 59.4948C2.71048 59.1704 2.44354 58.7851 2.23821 58.339C2.03287 57.8929 1.9302 57.4265 1.9302 56.9196H3.4497C3.4497 57.2237 3.51131 57.5076 3.65504 57.7915C3.77825 58.0551 3.96305 58.2984 4.16839 58.5012C4.37373 58.704 4.64067 58.8662 4.92814 58.9879C5.21562 59.1095 5.52363 59.1704 5.85217 59.1704H11.2936V59.1501C11.3142 59.1501 11.3347 59.1501 11.3552 59.1501C11.3552 59.1501 11.3758 59.1501 11.4168 59.1501C11.7454 59.1501 12.0534 59.0893 12.3614 58.9676C12.6489 58.8459 12.9158 58.6837 13.1212 58.4809C13.3265 58.2782 13.5113 58.0145 13.6345 57.7509C13.7577 57.467 13.8398 57.1832 13.8398 56.8587C13.8398 56.8384 13.8398 56.8182 13.8193 56.7979V56.7573V56.7168V56.6965V56.6762V56.6357V56.6154V56.5951V56.5546C13.7988 56.5343 13.7988 56.5343 13.7988 56.514C13.7988 56.4532 13.7988 56.4329 13.7782 56.4126V56.3721V56.3518C13.7782 56.3315 13.7782 56.3315 13.7577 56.3315C13.7577 56.3315 13.7372 56.3315 13.7372 56.3112V56.2707L13.7166 56.2504V56.2098C13.7166 56.1896 13.7166 56.1896 13.6961 56.1693C13.6961 56.149 13.6961 56.1287 13.6756 56.1287C13.6756 56.1287 13.655 56.1084 13.655 56.0882C13.6345 56.0882 13.6345 56.0882 13.6345 56.0679C13.6345 56.0476 13.6345 56.0476 13.614 56.0476C13.614 56.0476 13.5934 56.0273 13.5934 56.0071C13.5729 56.0071 13.5729 56.0071 13.5729 55.9868V55.9665C13.5524 55.9665 13.5524 55.9665 13.5524 55.9462C13.5318 55.9259 13.5318 55.9259 13.5318 55.9057C13.5113 55.8854 13.5113 55.8854 13.5113 55.8651C13.4908 55.8448 13.4908 55.8246 13.4702 55.8043C13.4497 55.784 13.4497 55.7637 13.4292 55.7434L13.4086 55.7232V55.7029L13.3676 55.6623L13.347 55.6218L13.3265 55.5812L13.2649 55.5204L13.2238 55.4798C13.2238 55.4596 13.2238 55.4596 13.2033 55.4393L13.1622 55.3987L13.1212 55.3582L13.1006 55.3176C13.0801 55.3176 13.0801 55.3176 13.0801 55.3176C13.0801 55.3176 13.0801 55.3176 13.0596 55.3176C13.039 55.2973 13.039 55.2973 13.0185 55.2771C13.0185 55.2568 12.998 55.2568 12.9569 55.2365L12.9364 55.2162L12.8953 55.1757C12.8748 55.1757 12.8748 55.1757 12.8748 55.1757C12.8748 55.1757 12.8748 55.1757 12.8542 55.1757L12.8132 55.1351L12.7721 55.1148C12.7516 55.0946 12.7105 55.0743 12.6899 55.054L12.6489 55.0337C12.6489 55.0134 12.6283 55.0134 12.6078 55.0134V54.9526L12.5667 54.9323C12.5462 54.9323 12.5462 54.9323 12.5462 54.9323C12.5462 54.9323 12.5462 54.9323 12.5257 54.9323C12.5051 54.9121 12.4641 54.8918 12.4435 54.8918C12.3819 54.8715 12.3614 54.8512 12.3409 54.8512C12.3203 54.8309 12.3203 54.8309 12.2998 54.8309C12.2793 54.8107 12.2793 54.8107 12.2587 54.8107C12.2382 54.7904 12.2382 54.7904 12.2177 54.7904H12.1971C12.1766 54.7701 12.1766 54.7701 12.1561 54.7701C12.1355 54.7498 12.115 54.7498 12.0945 54.7498C12.0945 54.7498 12.0739 54.7498 12.0329 54.7296C12.0123 54.7296 12.0123 54.7296 11.9918 54.7296C11.9713 54.7296 11.9713 54.7296 11.9507 54.7296H11.9097V54.7093H11.8686C11.6222 54.6484 11.2115 54.5471 10.6571 54.4457C10.1027 54.324 9.48666 54.2226 8.82958 54.1009C8.72691 54.0807 8.60371 54.0604 8.50104 54.0401C8.39837 54.0198 8.27517 53.9996 8.1725 53.9793C7.98769 53.959 7.78235 53.9185 7.59755 53.8779C7.41274 53.8373 7.2074 53.7968 7.0226 53.7765C7.00207 53.7765 7.00207 53.7765 6.98153 53.7765C6.98153 53.7765 6.961 53.7765 6.94046 53.7765C6.87886 53.7765 6.81726 53.7562 6.73512 53.7359H6.67352H6.63246C6.61192 53.7157 6.59139 53.7157 6.57085 53.7157C6.55032 53.7157 6.52979 53.7157 6.50925 53.7157C6.48872 53.7157 6.46818 53.7157 6.44765 53.7157C6.42712 53.7157 6.40658 53.7157 6.38605 53.6954H6.30391C6.16018 53.6751 6.01644 53.6548 5.89324 53.6346C5.77003 53.6143 5.64683 53.594 5.54416 53.5737C5.42096 53.5535 5.29775 53.5332 5.19508 53.5129C5.09241 53.4926 5.01028 53.4926 4.92814 53.4723C4.84601 53.4521 4.78441 53.4521 4.7228 53.4318C4.31213 53.3304 3.92198 53.1682 3.59344 52.9451C3.24437 52.7221 2.95689 52.4585 2.71048 52.134C2.46408 51.8298 2.25874 51.4851 2.115 51.0998C1.97127 50.7146 1.88913 50.309 1.88913 49.8832C1.88913 49.3762 1.9918 48.9099 2.19714 48.4637C2.40248 48.0176 2.66942 47.6324 3.01849 47.2876C3.36757 46.9632 3.75771 46.6996 4.22999 46.4968C4.70227 46.294 5.19508 46.1926 5.72897 46.1724H5.8111H11.3552H11.5811C12.0739 46.1926 12.5462 46.3143 12.9774 46.4968C13.4086 46.6793 13.7782 46.9429 14.1068 47.2471C14.4353 47.5512 14.7023 47.896 14.9076 48.3015C15.1129 48.7071 15.2362 49.1329 15.2772 49.579H13.7577C13.7166 49.3154 13.6345 49.0721 13.4908 48.8287C13.3676 48.5854 13.2033 48.3826 12.998 48.2001C12.7926 48.0176 12.5667 47.8757 12.3203 47.7743C12.0739 47.6729 11.7865 47.6121 11.499 47.5918H11.4374H11.3552H11.2526H5.91377H5.8111H5.72897C5.42096 47.6121 5.11295 47.6729 4.82547 47.7946C4.538 47.9162 4.29159 48.0785 4.08625 48.2812C3.88092 48.484 3.71664 48.7274 3.59344 49.0112C3.47024 49.2951 3.40864 49.579 3.40864 49.8832V49.944V50.0049V50.0454V50.086V50.1062V50.1468V50.1671L3.42917 50.1874V50.2279V50.2482V50.2887C3.4497 50.309 3.4497 50.309 3.4497 50.3293V50.3698V50.3901L3.47024 50.4104V50.451V50.4712L3.49077 50.4915V50.5321C3.51131 50.5523 3.51131 50.5523 3.51131 50.5726C3.51131 50.5929 3.51131 50.5929 3.53184 50.5929L3.55237 50.6132C3.57291 50.6335 3.57291 50.6537 3.59344 50.674C3.59344 50.6943 3.61398 50.7146 3.63451 50.7348C3.63451 50.7551 3.63451 50.7754 3.65504 50.7957C3.65504 50.816 3.65504 50.816 3.67558 50.8362C3.67558 50.8565 3.67558 50.8565 3.69611 50.8565L3.71664 50.8768L3.73718 50.9173C3.75771 50.9173 3.75771 50.9376 3.75771 50.9579H3.77825C3.77825 50.9782 3.77825 50.9985 3.79878 50.9985V51.0187L3.81931 51.039L3.83985 51.0593V51.0796C3.86038 51.0998 3.86038 51.0998 3.86038 51.1201H3.88092C3.88092 51.1404 3.88092 51.1607 3.90145 51.1607L3.94252 51.2012V51.2215L3.96305 51.2621L4.00412 51.3026L4.08625 51.3837L4.16839 51.4851C4.18892 51.4851 4.18892 51.4851 4.18892 51.4851C4.18892 51.4851 4.18892 51.4851 4.20946 51.4851L4.25053 51.5257L4.29159 51.5662L4.33266 51.5865C4.33266 51.6068 4.33266 51.6068 4.3532 51.6068V51.6271C4.37373 51.6271 4.37373 51.6271 4.39426 51.6473L4.4148 51.6676H4.43533C4.43533 51.6879 4.43533 51.6879 4.45586 51.6879L4.4764 51.7082L4.49693 51.7285C4.51747 51.7285 4.51747 51.7285 4.538 51.7487C4.55853 51.7487 4.55853 51.7487 4.55853 51.7487C4.55853 51.7487 4.55853 51.7487 4.57907 51.7487L4.82547 51.8907C4.84601 51.8907 4.88708 51.911 4.90761 51.9312C4.92814 51.9312 4.94868 51.9312 4.96921 51.9515H5.01028L5.03081 51.9718H5.07188C5.09241 51.9921 5.09241 51.9921 5.11295 51.9921H5.13348C5.13348 52.0123 5.15402 52.0123 5.17455 52.0123C5.19508 52.0123 5.19508 52.0123 5.21562 52.0326H5.23615H5.27722L5.29775 52.0529H5.33882C5.35936 52.0529 5.37989 52.0529 5.40042 52.0732H5.44149C5.46202 52.0732 5.48256 52.0732 5.50309 52.0935H5.56469H5.60576H5.6263C5.64683 52.0935 5.72897 52.1137 5.89324 52.134C6.05751 52.1543 6.26285 52.1948 6.52979 52.2354C6.77619 52.276 7.0842 52.3165 7.43328 52.3773C7.78235 52.4382 8.13143 52.499 8.50104 52.5598C8.64478 52.5801 8.72691 52.6004 8.78851 52.6207C9.4456 52.7221 10.1232 52.8437 10.7803 52.9857C11.4374 53.1276 11.9713 53.2087 12.4435 53.3507Z" stroke="white" stroke-width="2" stroke-miterlimit="10"/>
<path d="M31.499 54.0807H25.1335V60.6304H23.5934V46.0913H32.9774C33.5318 46.1319 34.0452 46.2535 34.538 46.4969C35.0308 46.7199 35.462 47.0241 35.8111 47.3891C36.1602 47.7541 36.4477 48.1596 36.6735 48.626C36.8789 49.0924 37.0021 49.5791 37.0021 50.086C37.0021 50.593 36.8994 51.0594 36.7146 51.5257C36.5298 51.9921 36.2423 52.3774 35.9138 52.7424C35.5647 53.0871 35.1746 53.3913 34.7023 53.6346C34.23 53.878 33.7372 54.0199 33.2033 54.101H31.499V54.0807ZM32.9364 52.6816C33.2854 52.641 33.614 52.5396 33.922 52.3977C34.23 52.2355 34.4969 52.053 34.7228 51.8299C34.9487 51.6069 35.1129 51.3432 35.2567 51.0391C35.3799 50.7349 35.462 50.4307 35.462 50.086C35.462 49.7413 35.4004 49.4169 35.2567 49.1127C35.1129 48.8085 34.9281 48.5449 34.6817 48.3016C34.4353 48.0785 34.1479 47.8757 33.8193 47.7541C33.4908 47.6121 33.1417 47.531 32.7721 47.5107H25.154V52.6816H32.9364V52.6816Z" stroke="white" stroke-width="2" stroke-miterlimit="10"/>
<path d="M63.1622 60.6303H61.499L58.5421 55.1554H50.0616L47.1047 60.6303H45.4415L53.3881 45.8682H53.4086H53.9015H54.2916H54.6817H55.154H55.1746L63.1622 60.6303ZM50.8214 53.6954H57.7618L54.3121 47.2876H54.2916L50.8214 53.6954Z" stroke="white" stroke-width="2" stroke-miterlimit="10"/>
<path d="M73.9836 59.1499H76.2423V60.5896H70.3901V59.1499H72.6489V47.5308H70.3901V46.1113H76.2423V47.5308H73.9836V59.1499Z" stroke="white" stroke-width="2" stroke-miterlimit="10"/>
<path d="M99.4456 60.6708H97.9466L86.037 48.1797V60.6708H84.538V46.0708H86.037L97.9671 58.5619V46.0708H99.4661V60.6708H99.4456Z" stroke="white" stroke-width="2" stroke-miterlimit="10"/>
<path d="M13.347 84.5785H11.848V77.8057H1.90965V84.5785H0.410675V69.9785H1.90965V76.366H11.8686V69.9785H13.347V84.5785Z" fill="white"/>
<path d="M29.8357 69.999C30.9035 69.999 31.8891 70.1815 32.8337 70.5668C33.7782 70.9521 34.5996 71.4793 35.2772 72.1282C35.9754 72.7771 36.5298 73.5476 36.9404 74.4398C37.3511 75.3118 37.5565 76.2648 37.5565 77.2787C37.5565 78.2926 37.3511 79.2254 36.9404 80.1176C36.5298 80.9896 35.9754 81.7601 35.2772 82.4293C34.5791 83.0782 33.7577 83.6054 32.8337 83.9907C31.8891 84.3759 30.9035 84.5584 29.8357 84.5584C28.768 84.5584 27.7823 84.3759 26.8378 83.9907C25.9138 83.6054 25.0924 83.0782 24.3943 82.4293C23.6961 81.7804 23.1417 81.0098 22.731 80.1176C22.3203 79.2457 22.115 78.2926 22.115 77.2787C22.115 76.2648 22.3203 75.3321 22.731 74.4398C23.1417 73.5679 23.6961 72.7974 24.3943 72.1282C25.0924 71.4793 25.9138 70.9521 26.8378 70.5668C27.7823 70.2018 28.7885 69.999 29.8357 69.999ZM29.8357 83.2201C30.6982 83.2201 31.5195 83.0579 32.2793 82.7537C33.039 82.4496 33.7166 82.0237 34.271 81.4762C34.846 80.949 35.2772 80.3204 35.6263 79.5904C35.9548 78.8604 36.1191 78.0898 36.1191 77.2787C36.1191 76.4676 35.9548 75.6971 35.6263 74.9671C35.2977 74.2371 34.846 73.6287 34.271 73.0812C33.6961 72.554 33.039 72.1282 32.2793 71.8037C31.5195 71.4996 30.6982 71.3373 29.8357 71.3373C28.9733 71.3373 28.1519 71.4996 27.3922 71.8037C26.6324 72.1079 25.9754 72.5337 25.4004 73.0812C24.8255 73.6085 24.3943 74.2371 24.0452 74.9671C23.6961 75.6971 23.5524 76.4473 23.5524 77.2787C23.5524 78.0898 23.7166 78.8604 24.0452 79.5904C24.3737 80.3204 24.8255 80.949 25.4004 81.4762C25.9754 82.0034 26.6324 82.4293 27.3922 82.7537C28.1519 83.0579 28.9733 83.2201 29.8357 83.2201Z" fill="white"/>
<path d="M59.4456 69.999V78.2926C59.4456 79.1443 59.2608 79.9554 58.9117 80.7259C58.5626 81.4965 58.0904 82.1454 57.4743 82.7132C56.8583 83.2809 56.1602 83.727 55.3388 84.0515C54.5175 84.3759 53.655 84.5382 52.731 84.5382C51.7865 84.5382 50.924 84.3759 50.1027 84.0515C49.2813 83.727 48.5832 83.2809 47.9672 82.7132C47.3511 82.1454 46.8789 81.4762 46.5298 80.7259C46.1807 79.9554 45.9959 79.1443 45.9959 78.2926V69.999H47.4743V77.8262C47.4949 77.9073 47.4949 77.9884 47.4949 78.0696C47.4949 78.1507 47.4949 78.2318 47.4949 78.3129C47.5154 78.9821 47.6592 79.6107 47.9261 80.219C48.193 80.8071 48.5626 81.314 49.0349 81.7601C49.5072 82.2062 50.0616 82.5509 50.6776 82.7943C51.3142 83.0579 51.9918 83.1796 52.7105 83.1796C53.4292 83.1796 54.1068 83.0579 54.7433 82.7943C55.3799 82.5307 55.9343 82.1859 56.4271 81.7601C56.9199 81.3343 57.269 80.8071 57.5565 80.219C57.8234 79.6309 57.9672 79.0023 57.9672 78.3129V77.9682V77.8262V69.999H59.4456Z" fill="white"/>
<path d="M78.4189 77.2784C78.8296 77.4001 79.2197 77.5623 79.5483 77.7854C79.8974 78.0084 80.1848 78.272 80.4312 78.5965C80.6776 78.9006 80.883 79.2454 81.0267 79.6306C81.1705 80.0159 81.2526 80.4012 81.2526 80.827C81.2526 81.334 81.1499 81.8206 80.9446 82.2667C80.7392 82.7128 80.4518 83.1184 80.1027 83.4428C79.7536 83.7876 79.3429 84.0512 78.8707 84.2337C78.3984 84.4162 77.885 84.5176 77.3512 84.5176H71.807H71.7249C71.191 84.4973 70.6982 84.3959 70.2464 84.2134C69.7742 84.0309 69.384 83.7673 69.0349 83.4226C68.6859 83.0981 68.4189 82.7128 68.2136 82.2667C68.0082 81.8206 67.9056 81.3542 67.9056 80.8473H69.4251C69.4251 81.1515 69.4867 81.4353 69.6304 81.7192C69.7536 81.9828 69.9384 82.2262 70.1438 82.429C70.3491 82.6317 70.616 82.794 70.9035 82.9156C71.191 83.0373 71.499 83.0981 71.8275 83.0981H77.269V83.0778C77.2896 83.0778 77.3101 83.0778 77.3306 83.0778C77.3306 83.0778 77.3512 83.0778 77.3922 83.0778C77.7208 83.0778 78.0288 83.017 78.3368 82.8953C78.6243 82.7737 78.8912 82.6115 79.0965 82.4087C79.3019 82.2059 79.4867 81.9423 79.6099 81.6787C79.7331 81.3948 79.8152 81.1109 79.8152 80.7865C79.8152 80.7662 79.8152 80.7459 79.7947 80.7256V80.6851V80.6445V80.6242V80.604V80.5634V80.5431V80.5229V80.4823C79.7742 80.462 79.7742 80.462 79.7742 80.4417C79.7742 80.3809 79.7742 80.3606 79.7536 80.3404V80.2998V80.2795C79.7536 80.2592 79.7536 80.2592 79.7331 80.2592C79.7331 80.2592 79.7331 80.2592 79.7331 80.239V80.1984L79.7126 80.1781V80.1376C79.7126 80.1173 79.7126 80.1173 79.692 80.097C79.692 80.0767 79.692 80.0565 79.692 80.0565C79.692 80.0565 79.692 80.0362 79.692 80.0159C79.6715 80.0159 79.6715 80.0159 79.6715 79.9956C79.6715 79.9754 79.6715 79.9754 79.6509 79.9754C79.6509 79.9754 79.6509 79.9551 79.6509 79.9348C79.6304 79.9348 79.6304 79.9348 79.6304 79.9145V79.8942C79.6099 79.874 79.6099 79.874 79.6099 79.8537C79.5894 79.8334 79.5893 79.8334 79.5893 79.8131C79.5688 79.7929 79.5688 79.7929 79.5688 79.7726C79.5483 79.7523 79.5483 79.732 79.5277 79.7117C79.5072 79.6915 79.5072 79.6712 79.4867 79.6509L79.4661 79.6306V79.6104L79.4251 79.5698L79.4045 79.5292L79.384 79.4887L79.3224 79.4279L79.2813 79.3873C79.2813 79.367 79.2813 79.367 79.2608 79.3467L79.2197 79.3062L79.1787 79.2656L79.1581 79.2251C79.1376 79.2251 79.1376 79.2251 79.1376 79.2251C79.1376 79.2251 79.1376 79.2251 79.1171 79.2251C79.0965 79.2048 79.0965 79.2048 79.076 79.1845C79.076 79.1642 79.0555 79.1642 79.0144 79.144L78.9939 79.1237L78.9528 79.0831C78.9323 79.0831 78.9323 79.0831 78.9323 79.0831C78.9323 79.0831 78.9323 79.0831 78.9117 79.0831L78.8707 79.0426L78.8296 79.0223C78.8091 79.002 78.768 78.9817 78.7475 78.9615L78.7064 78.9412C78.7064 78.9209 78.6859 78.9209 78.6653 78.9209V78.8804L78.6243 78.8601C78.6037 78.8601 78.6037 78.8601 78.6037 78.8601C78.6037 78.8601 78.6037 78.8601 78.5832 78.8601C78.5627 78.8398 78.5216 78.8195 78.5011 78.8195C78.4394 78.7992 78.4189 78.779 78.3984 78.779C78.3778 78.7587 78.3779 78.7587 78.3573 78.7587C78.3368 78.7384 78.3368 78.7384 78.3162 78.7384C78.2957 78.7181 78.2957 78.7181 78.2752 78.7181H78.2546C78.2341 78.6979 78.2341 78.6979 78.2136 78.6979C78.193 78.6776 78.1725 78.6776 78.152 78.6776C78.152 78.6776 78.1314 78.6776 78.0904 78.6573C78.0698 78.6573 78.0698 78.6573 78.0493 78.6573C78.0288 78.6573 78.0288 78.6573 78.0082 78.6573H77.9466V78.637H77.9056C77.6592 78.5762 77.2485 78.4748 76.6941 78.3734C76.1397 78.2517 75.5236 78.1504 74.8666 78.0287C74.7639 78.0084 74.6407 77.9881 74.538 77.9679C74.4353 77.9476 74.3121 77.9273 74.2095 77.907C74.0247 77.8867 73.8193 77.8462 73.6345 77.8056C73.4497 77.7651 73.2444 77.7245 73.0596 77.7042C73.039 77.7042 73.039 77.7042 73.0185 77.7042C73.0185 77.7042 72.998 77.7042 72.9774 77.7042C72.9158 77.7042 72.8542 77.684 72.7721 77.6637H72.7105H72.6694C72.6489 77.6434 72.6284 77.6434 72.6078 77.6434C72.5873 77.6434 72.5668 77.6434 72.5462 77.6434C72.5257 77.6434 72.5052 77.6434 72.4846 77.6434C72.4641 77.6434 72.4436 77.6434 72.423 77.6231H72.3409C72.1972 77.6029 72.0534 77.5826 71.9302 77.5623C71.807 77.542 71.6838 77.5217 71.5811 77.5015C71.4579 77.4812 71.3347 77.4609 71.2321 77.4406C71.1294 77.4204 71.0473 77.4204 70.9651 77.4001C70.883 77.3798 70.8214 77.3798 70.7598 77.3595C70.3491 77.2581 69.959 77.0959 69.6304 76.8729C69.2813 76.6498 68.9939 76.3862 68.7475 76.0618C68.5011 75.7576 68.2957 75.4129 68.152 75.0276C68.0082 74.6423 67.9261 74.2368 67.9261 73.8109C67.9261 73.304 68.0288 72.8376 68.2341 72.3915C68.4395 71.9454 68.7064 71.5601 69.0555 71.2154C69.4045 70.8909 69.7947 70.6273 70.267 70.4245C70.7393 70.2218 71.2321 70.1204 71.7659 70.1001H71.8481H77.3922H77.6181C78.1109 70.1204 78.5832 70.242 79.0144 70.4245C79.4456 70.607 79.8152 70.8706 80.1438 71.1748C80.4723 71.479 80.7392 71.8237 80.9446 72.2293C81.1499 72.6348 81.2731 73.0606 81.3142 73.5068H79.7947C79.7536 73.2431 79.6715 72.9998 79.5277 72.7565C79.4045 72.5131 79.2403 72.3104 79.0349 72.1279C78.8296 71.9454 78.6037 71.8034 78.3573 71.702C78.1109 71.6006 77.8234 71.5398 77.536 71.5195H77.4744H77.3922H77.2896H71.9507H71.8481H71.7659C71.4579 71.5398 71.1499 71.6007 70.8625 71.7223C70.575 71.844 70.3286 72.0062 70.1232 72.209C69.9179 72.4118 69.7536 72.6551 69.6304 72.939C69.5072 73.2229 69.4456 73.5068 69.4456 73.8109V73.8718V73.9326V73.9731V74.0137V74.034V74.0745V74.0948L69.4661 74.1151V74.1556V74.1759V74.2165C69.4867 74.2368 69.4867 74.2368 69.4867 74.257V74.2976V74.3179L69.5072 74.3381V74.3787V74.399L69.5278 74.4193V74.4598C69.5483 74.4801 69.5483 74.4801 69.5483 74.5004C69.5483 74.5206 69.5483 74.5206 69.5483 74.5206L69.5688 74.5409C69.5894 74.5612 69.5894 74.5815 69.6099 74.6018C69.6099 74.622 69.6304 74.6423 69.651 74.6626C69.651 74.6829 69.651 74.7031 69.6715 74.7234C69.6715 74.7437 69.6715 74.7437 69.692 74.764C69.692 74.7843 69.692 74.7842 69.7126 74.7842L69.7331 74.8045L69.7536 74.8451C69.7742 74.8451 69.7742 74.8654 69.7742 74.8856H69.7947C69.7947 74.9059 69.7947 74.9262 69.8152 74.9262V74.9465L69.8358 74.9668L69.8563 74.987V75.0073C69.8768 75.0276 69.8768 75.0276 69.8768 75.0479H69.8974C69.8974 75.0681 69.8974 75.0884 69.9179 75.0884L69.959 75.129V75.1493L69.9795 75.1898L70.0206 75.2304L70.1027 75.3115L70.1848 75.4129C70.2054 75.4129 70.2054 75.4129 70.2054 75.4129C70.2054 75.4129 70.2054 75.4129 70.2259 75.4129L70.267 75.4534L70.308 75.494L70.3491 75.5142C70.3491 75.5345 70.3491 75.5345 70.3696 75.5345V75.5548C70.3902 75.5548 70.3902 75.5548 70.4107 75.5751L70.4312 75.5954H70.4518C70.4518 75.6156 70.4518 75.6156 70.4723 75.6156L70.4928 75.6359L70.5134 75.6562C70.5339 75.6562 70.5339 75.6562 70.5544 75.6765C70.575 75.6765 70.575 75.6765 70.575 75.6765C70.575 75.6765 70.575 75.6765 70.5955 75.6765L70.8419 75.8184C70.8625 75.8184 70.9035 75.8387 70.9241 75.859C70.9446 75.859 70.9651 75.859 70.9857 75.8793H71.0267L71.0473 75.8995H71.0883C71.1089 75.9198 71.1089 75.9198 71.1294 75.9198H71.1499C71.1499 75.9401 71.1705 75.9401 71.191 75.9401C71.2115 75.9401 71.2115 75.9401 71.2321 75.9604H71.2526H71.2937L71.3142 75.9806H71.3553C71.3758 75.9806 71.3963 75.9806 71.4169 76.0009H71.4579C71.4785 76.0009 71.499 76.0009 71.5195 76.0212H71.5811H71.6222H71.6427C71.6633 76.0212 71.7454 76.0415 71.9097 76.0618C72.074 76.082 72.2793 76.1226 72.5462 76.1631C72.7926 76.2037 73.1006 76.2442 73.4497 76.3051C73.7988 76.3659 74.1479 76.4268 74.5175 76.4876C74.6612 76.5079 74.7434 76.5281 74.805 76.5484C75.462 76.6498 76.1397 76.7715 76.7967 76.9134C77.3922 76.9945 77.9466 77.1365 78.4189 77.2784Z" fill="white"/>
<path d="M101.355 84.5787H89.5688V69.999H101.355V71.4185H91.0473V76.3865H101.355V77.8059H91.0473V83.1795H101.355V84.5787Z" fill="white"/>
<path d="M13.347 84.5785H11.848V77.8057H1.90965V84.5785H0.410675V69.9785H1.90965V76.366H11.8686V69.9785H13.347V84.5785Z" stroke="white" stroke-width="2" stroke-miterlimit="10"/>
<path d="M29.8357 69.999C30.9035 69.999 31.8891 70.1815 32.8337 70.5668C33.7782 70.9521 34.5996 71.4793 35.2772 72.1282C35.9754 72.7771 36.5298 73.5476 36.9404 74.4398C37.3511 75.3118 37.5565 76.2648 37.5565 77.2787C37.5565 78.2926 37.3511 79.2254 36.9404 80.1176C36.5298 80.9896 35.9754 81.7601 35.2772 82.4293C34.5791 83.0782 33.7577 83.6054 32.8337 83.9907C31.8891 84.3759 30.9035 84.5584 29.8357 84.5584C28.768 84.5584 27.7823 84.3759 26.8378 83.9907C25.9138 83.6054 25.0924 83.0782 24.3943 82.4293C23.6961 81.7804 23.1417 81.0098 22.731 80.1176C22.3203 79.2457 22.115 78.2926 22.115 77.2787C22.115 76.2648 22.3203 75.3321 22.731 74.4398C23.1417 73.5679 23.6961 72.7974 24.3943 72.1282C25.0924 71.4793 25.9138 70.9521 26.8378 70.5668C27.7823 70.2018 28.7885 69.999 29.8357 69.999ZM29.8357 83.2201C30.6982 83.2201 31.5195 83.0579 32.2793 82.7537C33.039 82.4496 33.7166 82.0237 34.271 81.4762C34.846 80.949 35.2772 80.3204 35.6263 79.5904C35.9548 78.8604 36.1191 78.0898 36.1191 77.2787C36.1191 76.4676 35.9548 75.6971 35.6263 74.9671C35.2977 74.2371 34.846 73.6287 34.271 73.0812C33.6961 72.554 33.039 72.1282 32.2793 71.8037C31.5195 71.4996 30.6982 71.3373 29.8357 71.3373C28.9733 71.3373 28.1519 71.4996 27.3922 71.8037C26.6324 72.1079 25.9754 72.5337 25.4004 73.0812C24.8255 73.6085 24.3943 74.2371 24.0452 74.9671C23.6961 75.6971 23.5524 76.4473 23.5524 77.2787C23.5524 78.0898 23.7166 78.8604 24.0452 79.5904C24.3737 80.3204 24.8255 80.949 25.4004 81.4762C25.9754 82.0034 26.6324 82.4293 27.3922 82.7537C28.1519 83.0579 28.9733 83.2201 29.8357 83.2201Z" stroke="white" stroke-width="2" stroke-miterlimit="10"/>
<path d="M59.4456 69.999V78.2926C59.4456 79.1443 59.2608 79.9554 58.9117 80.7259C58.5626 81.4965 58.0904 82.1454 57.4743 82.7132C56.8583 83.2809 56.1602 83.727 55.3388 84.0515C54.5175 84.3759 53.655 84.5382 52.731 84.5382C51.7865 84.5382 50.924 84.3759 50.1027 84.0515C49.2813 83.727 48.5832 83.2809 47.9672 82.7132C47.3511 82.1454 46.8789 81.4762 46.5298 80.7259C46.1807 79.9554 45.9959 79.1443 45.9959 78.2926V69.999H47.4743V77.8262C47.4949 77.9073 47.4949 77.9884 47.4949 78.0696C47.4949 78.1507 47.4949 78.2318 47.4949 78.3129C47.5154 78.9821 47.6592 79.6107 47.9261 80.219C48.193 80.8071 48.5626 81.314 49.0349 81.7601C49.5072 82.2062 50.0616 82.5509 50.6776 82.7943C51.3142 83.0579 51.9918 83.1796 52.7105 83.1796C53.4292 83.1796 54.1068 83.0579 54.7433 82.7943C55.3799 82.5307 55.9343 82.1859 56.4271 81.7601C56.9199 81.3343 57.269 80.8071 57.5565 80.219C57.8234 79.6309 57.9672 79.0023 57.9672 78.3129V77.9682V77.8262V69.999H59.4456Z" stroke="white" stroke-width="2" stroke-miterlimit="10"/>
<path d="M78.4189 77.2784C78.8296 77.4001 79.2197 77.5623 79.5483 77.7854C79.8974 78.0084 80.1848 78.272 80.4312 78.5965C80.6776 78.9006 80.883 79.2454 81.0267 79.6306C81.1705 80.0159 81.2526 80.4012 81.2526 80.827C81.2526 81.334 81.1499 81.8206 80.9446 82.2667C80.7392 82.7128 80.4518 83.1184 80.1027 83.4428C79.7536 83.7876 79.3429 84.0512 78.8707 84.2337C78.3984 84.4162 77.885 84.5176 77.3512 84.5176H71.807H71.7249C71.191 84.4973 70.6982 84.3959 70.2464 84.2134C69.7742 84.0309 69.384 83.7673 69.0349 83.4226C68.6859 83.0981 68.4189 82.7128 68.2136 82.2667C68.0082 81.8206 67.9056 81.3542 67.9056 80.8473H69.4251C69.4251 81.1515 69.4867 81.4353 69.6304 81.7192C69.7536 81.9828 69.9384 82.2262 70.1438 82.429C70.3491 82.6317 70.616 82.794 70.9035 82.9156C71.191 83.0373 71.499 83.0981 71.8275 83.0981H77.269V83.0778C77.2896 83.0778 77.3101 83.0778 77.3306 83.0778C77.3306 83.0778 77.3512 83.0778 77.3922 83.0778C77.7208 83.0778 78.0288 83.017 78.3368 82.8953C78.6243 82.7737 78.8912 82.6115 79.0965 82.4087C79.3019 82.2059 79.4867 81.9423 79.6099 81.6787C79.7331 81.3948 79.8152 81.1109 79.8152 80.7865C79.8152 80.7662 79.8152 80.7459 79.7947 80.7256V80.6851V80.6445V80.6242V80.604V80.5634V80.5431V80.5229V80.4823C79.7742 80.462 79.7742 80.462 79.7742 80.4417C79.7742 80.3809 79.7742 80.3606 79.7536 80.3404V80.2998V80.2795C79.7536 80.2592 79.7536 80.2592 79.7331 80.2592C79.7331 80.2592 79.7331 80.2592 79.7331 80.239V80.1984L79.7126 80.1781V80.1376C79.7126 80.1173 79.7126 80.1173 79.692 80.097C79.692 80.0767 79.692 80.0565 79.692 80.0565C79.692 80.0565 79.692 80.0362 79.692 80.0159C79.6715 80.0159 79.6715 80.0159 79.6715 79.9956C79.6715 79.9754 79.6715 79.9754 79.6509 79.9754C79.6509 79.9754 79.6509 79.9551 79.6509 79.9348C79.6304 79.9348 79.6304 79.9348 79.6304 79.9145V79.8942C79.6099 79.874 79.6099 79.874 79.6099 79.8537C79.5894 79.8334 79.5893 79.8334 79.5893 79.8131C79.5688 79.7929 79.5688 79.7929 79.5688 79.7726C79.5483 79.7523 79.5483 79.732 79.5277 79.7117C79.5072 79.6915 79.5072 79.6712 79.4867 79.6509L79.4661 79.6306V79.6104L79.4251 79.5698L79.4045 79.5292L79.384 79.4887L79.3224 79.4279L79.2813 79.3873C79.2813 79.367 79.2813 79.367 79.2608 79.3467L79.2197 79.3062L79.1787 79.2656L79.1581 79.2251C79.1376 79.2251 79.1376 79.2251 79.1376 79.2251C79.1376 79.2251 79.1376 79.2251 79.1171 79.2251C79.0965 79.2048 79.0965 79.2048 79.076 79.1845C79.076 79.1642 79.0555 79.1642 79.0144 79.144L78.9939 79.1237L78.9528 79.0831C78.9323 79.0831 78.9323 79.0831 78.9323 79.0831C78.9323 79.0831 78.9323 79.0831 78.9117 79.0831L78.8707 79.0426L78.8296 79.0223C78.8091 79.002 78.768 78.9817 78.7475 78.9615L78.7064 78.9412C78.7064 78.9209 78.6859 78.9209 78.6653 78.9209V78.8804L78.6243 78.8601C78.6037 78.8601 78.6037 78.8601 78.6037 78.8601C78.6037 78.8601 78.6037 78.8601 78.5832 78.8601C78.5627 78.8398 78.5216 78.8195 78.5011 78.8195C78.4394 78.7992 78.4189 78.779 78.3984 78.779C78.3778 78.7587 78.3779 78.7587 78.3573 78.7587C78.3368 78.7384 78.3368 78.7384 78.3162 78.7384C78.2957 78.7181 78.2957 78.7181 78.2752 78.7181H78.2546C78.2341 78.6979 78.2341 78.6979 78.2136 78.6979C78.193 78.6776 78.1725 78.6776 78.152 78.6776C78.152 78.6776 78.1314 78.6776 78.0904 78.6573C78.0698 78.6573 78.0698 78.6573 78.0493 78.6573C78.0288 78.6573 78.0288 78.6573 78.0082 78.6573H77.9466V78.637H77.9056C77.6592 78.5762 77.2485 78.4748 76.6941 78.3734C76.1397 78.2517 75.5236 78.1504 74.8666 78.0287C74.7639 78.0084 74.6407 77.9881 74.538 77.9679C74.4353 77.9476 74.3121 77.9273 74.2095 77.907C74.0247 77.8867 73.8193 77.8462 73.6345 77.8056C73.4497 77.7651 73.2444 77.7245 73.0596 77.7042C73.039 77.7042 73.039 77.7042 73.0185 77.7042C73.0185 77.7042 72.998 77.7042 72.9774 77.7042C72.9158 77.7042 72.8542 77.684 72.7721 77.6637H72.7105H72.6694C72.6489 77.6434 72.6284 77.6434 72.6078 77.6434C72.5873 77.6434 72.5668 77.6434 72.5462 77.6434C72.5257 77.6434 72.5052 77.6434 72.4846 77.6434C72.4641 77.6434 72.4436 77.6434 72.423 77.6231H72.3409C72.1972 77.6029 72.0534 77.5826 71.9302 77.5623C71.807 77.542 71.6838 77.5217 71.5811 77.5015C71.4579 77.4812 71.3347 77.4609 71.2321 77.4406C71.1294 77.4204 71.0473 77.4204 70.9651 77.4001C70.883 77.3798 70.8214 77.3798 70.7598 77.3595C70.3491 77.2581 69.959 77.0959 69.6304 76.8729C69.2813 76.6498 68.9939 76.3862 68.7475 76.0618C68.5011 75.7576 68.2957 75.4129 68.152 75.0276C68.0082 74.6423 67.9261 74.2368 67.9261 73.8109C67.9261 73.304 68.0288 72.8376 68.2341 72.3915C68.4395 71.9454 68.7064 71.5601 69.0555 71.2154C69.4045 70.8909 69.7947 70.6273 70.267 70.4245C70.7393 70.2218 71.2321 70.1204 71.7659 70.1001H71.8481H77.3922H77.6181C78.1109 70.1204 78.5832 70.242 79.0144 70.4245C79.4456 70.607 79.8152 70.8706 80.1438 71.1748C80.4723 71.479 80.7392 71.8237 80.9446 72.2293C81.1499 72.6348 81.2731 73.0606 81.3142 73.5068H79.7947C79.7536 73.2431 79.6715 72.9998 79.5277 72.7565C79.4045 72.5131 79.2403 72.3104 79.0349 72.1279C78.8296 71.9454 78.6037 71.8034 78.3573 71.702C78.1109 71.6006 77.8234 71.5398 77.536 71.5195H77.4744H77.3922H77.2896H71.9507H71.8481H71.7659C71.4579 71.5398 71.1499 71.6007 70.8625 71.7223C70.575 71.844 70.3286 72.0062 70.1232 72.209C69.9179 72.4118 69.7536 72.6551 69.6304 72.939C69.5072 73.2229 69.4456 73.5068 69.4456 73.8109V73.8718V73.9326V73.9731V74.0137V74.034V74.0745V74.0948L69.4661 74.1151V74.1556V74.1759V74.2165C69.4867 74.2368 69.4867 74.2368 69.4867 74.257V74.2976V74.3179L69.5072 74.3381V74.3787V74.399L69.5278 74.4193V74.4598C69.5483 74.4801 69.5483 74.4801 69.5483 74.5004C69.5483 74.5206 69.5483 74.5206 69.5483 74.5206L69.5688 74.5409C69.5894 74.5612 69.5894 74.5815 69.6099 74.6018C69.6099 74.622 69.6304 74.6423 69.651 74.6626C69.651 74.6829 69.651 74.7031 69.6715 74.7234C69.6715 74.7437 69.6715 74.7437 69.692 74.764C69.692 74.7843 69.692 74.7842 69.7126 74.7842L69.7331 74.8045L69.7536 74.8451C69.7742 74.8451 69.7742 74.8654 69.7742 74.8856H69.7947C69.7947 74.9059 69.7947 74.9262 69.8152 74.9262V74.9465L69.8358 74.9668L69.8563 74.987V75.0073C69.8768 75.0276 69.8768 75.0276 69.8768 75.0479H69.8974C69.8974 75.0681 69.8974 75.0884 69.9179 75.0884L69.959 75.129V75.1493L69.9795 75.1898L70.0206 75.2304L70.1027 75.3115L70.1848 75.4129C70.2054 75.4129 70.2054 75.4129 70.2054 75.4129C70.2054 75.4129 70.2054 75.4129 70.2259 75.4129L70.267 75.4534L70.308 75.494L70.3491 75.5142C70.3491 75.5345 70.3491 75.5345 70.3696 75.5345V75.5548C70.3902 75.5548 70.3902 75.5548 70.4107 75.5751L70.4312 75.5954H70.4518C70.4518 75.6156 70.4518 75.6156 70.4723 75.6156L70.4928 75.6359L70.5134 75.6562C70.5339 75.6562 70.5339 75.6562 70.5544 75.6765C70.575 75.6765 70.575 75.6765 70.575 75.6765C70.575 75.6765 70.575 75.6765 70.5955 75.6765L70.8419 75.8184C70.8625 75.8184 70.9035 75.8387 70.9241 75.859C70.9446 75.859 70.9651 75.859 70.9857 75.8793H71.0267L71.0473 75.8995H71.0883C71.1089 75.9198 71.1089 75.9198 71.1294 75.9198H71.1499C71.1499 75.9401 71.1705 75.9401 71.191 75.9401C71.2115 75.9401 71.2115 75.9401 71.2321 75.9604H71.2526H71.2937L71.3142 75.9806H71.3553C71.3758 75.9806 71.3963 75.9806 71.4169 76.0009H71.4579C71.4785 76.0009 71.499 76.0009 71.5195 76.0212H71.5811H71.6222H71.6427C71.6633 76.0212 71.7454 76.0415 71.9097 76.0618C72.074 76.082 72.2793 76.1226 72.5462 76.1631C72.7926 76.2037 73.1006 76.2442 73.4497 76.3051C73.7988 76.3659 74.1479 76.4268 74.5175 76.4876C74.6612 76.5079 74.7434 76.5281 74.805 76.5484C75.462 76.6498 76.1397 76.7715 76.7967 76.9134C77.3922 76.9945 77.9466 77.1365 78.4189 77.2784Z" stroke="white" stroke-width="2" stroke-miterlimit="10"/>
<path d="M101.355 84.5787H89.5688V69.999H101.355V71.4185H91.0473V76.3865H101.355V77.8059H91.0473V83.1795H101.355V84.5787Z" stroke="white" stroke-width="2" stroke-miterlimit="10"/>
<path d="M100.103 64.9292H1.12936V65.9431H100.103V64.9292Z" fill="white"/>
</g>
<defs>
<clipPath id="clip0_39_44">
<rect width="110" height="92" fill="white"/>
</clipPath>
</defs>
</svg>
